<svg width="141" height="18" viewBox="0 0 141 18" fill="none" xmlns="http://www.w3.org/2000/svg">
<path d="M0.820312 1.18945H4.92188C6.21745 1.18945 7.19727 1.29036 7.86133 1.49219C8.5319 1.69401 9.07227 2.10417 9.48242 2.72266C9.89258 3.33464 10.0977 4.32422 10.0977 5.69141C10.0977 6.61589 9.95117 7.26042 9.6582 7.625C9.37174 7.98958 8.80208 8.26953 7.94922 8.46484C8.89974 8.67969 9.54427 9.03776 9.88281 9.53906C10.2214 10.0339 10.3906 10.7956 10.3906 11.8242V13.2891C10.3906 14.3568 10.2669 15.1478 10.0195 15.6621C9.77865 16.1764 9.39128 16.528 8.85742 16.7168C8.32357 16.9056 7.22982 17 5.57617 17H0.820312V1.18945ZM4.93164 3.89453V7.41016C5.10742 7.40365 5.24414 7.40039 5.3418 7.40039C5.74544 7.40039 6.0026 7.30273 6.11328 7.10742C6.22396 6.9056 6.2793 6.33594 6.2793 5.39844C6.2793 4.90365 6.23372 4.55859 6.14258 4.36328C6.05143 4.16146 5.93099 4.03451 5.78125 3.98242C5.63802 3.93034 5.35482 3.90104 4.93164 3.89453ZM4.93164 9.87109V14.2949C5.51107 14.2754 5.87891 14.1842 6.03516 14.0215C6.19792 13.8587 6.2793 13.4583 6.2793 12.8203V11.3457C6.2793 10.6686 6.20768 10.2585 6.06445 10.1152C5.92122 9.97201 5.54362 9.89062 4.93164 9.87109ZM11.875 1.18945H18.7305V4.35352H15.9863V7.35156H18.5547V10.3594H15.9863V13.8359H19.0039V17H11.875V1.18945ZM28.4766 1.18945V4.35352H26.0352V17H21.9238V4.35352H19.4922V1.18945H28.4766ZM38.125 5.97461H34.3066V4.80273C34.3066 4.25586 34.2578 3.90755 34.1602 3.75781C34.0625 3.60807 33.8997 3.5332 33.6719 3.5332C33.4245 3.5332 33.2357 3.63411 33.1055 3.83594C32.9818 4.03776 32.9199 4.34375 32.9199 4.75391C32.9199 5.28125 32.9915 5.67839 33.1348 5.94531C33.2715 6.21224 33.6589 6.53451 34.2969 6.91211C36.1263 7.99935 37.2786 8.89128 37.7539 9.58789C38.2292 10.2845 38.4668 11.4076 38.4668 12.957C38.4668 14.0833 38.3333 14.9134 38.0664 15.4473C37.806 15.9811 37.2982 16.4303 36.543 16.7949C35.7878 17.153 34.9089 17.332 33.9062 17.332C32.806 17.332 31.8652 17.1237 31.084 16.707C30.3092 16.2904 29.8014 15.7598 29.5605 15.1152C29.3197 14.4707 29.1992 13.556 29.1992 12.3711V11.3359H33.0176V13.2598C33.0176 13.8522 33.0697 14.2331 33.1738 14.4023C33.2845 14.5716 33.4766 14.6562 33.75 14.6562C34.0234 14.6562 34.2253 14.5488 34.3555 14.334C34.4922 14.1191 34.5605 13.8001 34.5605 13.377C34.5605 12.446 34.4336 11.8372 34.1797 11.5508C33.9193 11.2643 33.278 10.7858 32.2559 10.1152C31.2337 9.43815 30.5566 8.94661 30.2246 8.64062C29.8926 8.33464 29.6159 7.91146 29.3945 7.37109C29.1797 6.83073 29.0723 6.14062 29.0723 5.30078C29.0723 4.08984 29.2253 3.20443 29.5312 2.64453C29.8438 2.08464 30.3451 1.64844 31.0352 1.33594C31.7253 1.01693 32.5586 0.857422 33.5352 0.857422C34.6029 0.857422 35.5111 1.02995 36.2598 1.375C37.015 1.72005 37.513 2.15625 37.7539 2.68359C38.0013 3.20443 38.125 4.0931 38.125 5.34961V5.97461ZM49.3652 8.08398H45.2539V5.33008C45.2539 4.5293 45.2083 4.03125 45.1172 3.83594C45.0326 3.63411 44.8405 3.5332 44.541 3.5332C44.2025 3.5332 43.9876 3.65365 43.8965 3.89453C43.8053 4.13542 43.7598 4.65625 43.7598 5.45703V12.8008C43.7598 13.569 43.8053 14.0703 43.8965 14.3047C43.9876 14.5391 44.1927 14.6562 44.5117 14.6562C44.8177 14.6562 45.0163 14.5391 45.1074 14.3047C45.2051 14.0703 45.2539 13.5202 45.2539 12.6543V10.6719H49.3652V11.2871C49.3652 12.9212 49.248 14.0801 49.0137 14.7637C48.7858 15.4473 48.2747 16.0462 47.4805 16.5605C46.6927 17.0749 45.7194 17.332 44.5605 17.332C43.3561 17.332 42.3633 17.1139 41.582 16.6777C40.8008 16.2415 40.2832 15.6393 40.0293 14.8711C39.7754 14.0964 39.6484 12.9342 39.6484 11.3848V6.76562C39.6484 5.6263 39.6875 4.77344 39.7656 4.20703C39.8438 3.63411 40.0749 3.08398 40.459 2.55664C40.8496 2.0293 41.3867 1.61589 42.0703 1.31641C42.7604 1.01042 43.5514 0.857422 44.4434 0.857422C45.6543 0.857422 46.6536 1.0918 47.4414 1.56055C48.2292 2.0293 48.7467 2.61523 48.9941 3.31836C49.2415 4.01497 49.3652 5.10221 49.3652 6.58008V8.08398ZM59.5996 1.18945L56.6016 11.2773V17H52.793V11.2773L49.9023 1.18945H53.6816C54.2741 4.26888 54.6061 6.34245 54.6777 7.41016C54.9056 5.72396 55.2865 3.65039 55.8203 1.18945H59.5996ZM60.3125 1.18945H64.4141C65.7096 1.18945 66.6895 1.29036 67.3535 1.49219C68.0241 1.69401 68.5645 2.10417 68.9746 2.72266C69.3848 3.33464 69.5898 4.32422 69.5898 5.69141C69.5898 6.61589 69.4434 7.26042 69.1504 7.625C68.8639 7.98958 68.2943 8.26953 67.4414 8.46484C68.3919 8.67969 69.0365 9.03776 69.375 9.53906C69.7135 10.0339 69.8828 10.7956 69.8828 11.8242V13.2891C69.8828 14.3568 69.7591 15.1478 69.5117 15.6621C69.2708 16.1764 68.8835 16.528 68.3496 16.7168C67.8158 16.9056 66.722 17 65.0684 17H60.3125V1.18945ZM64.4238 3.89453V7.41016C64.5996 7.40365 64.7363 7.40039 64.834 7.40039C65.2376 7.40039 65.4948 7.30273 65.6055 7.10742C65.7161 6.9056 65.7715 6.33594 65.7715 5.39844C65.7715 4.90365 65.7259 4.55859 65.6348 4.36328C65.5436 4.16146 65.4232 4.03451 65.2734 3.98242C65.1302 3.93034 64.847 3.90104 64.4238 3.89453ZM64.4238 9.87109V14.2949C65.0033 14.2754 65.3711 14.1842 65.5273 14.0215C65.6901 13.8587 65.7715 13.4583 65.7715 12.8203V11.3457C65.7715 10.6686 65.6999 10.2585 65.5566 10.1152C65.4134 9.97201 65.0358 9.89062 64.4238 9.87109ZM71.3672 1.18945H78.2227V4.35352H75.4785V7.35156H78.0469V10.3594H75.4785V13.8359H78.4961V17H71.3672V1.18945ZM79.6875 1.18945H82.5977C84.5378 1.18945 85.8496 1.26432 86.5332 1.41406C87.2233 1.5638 87.7832 1.94792 88.2129 2.56641C88.6491 3.17839 88.8672 4.1582 88.8672 5.50586C88.8672 6.73633 88.7142 7.56315 88.4082 7.98633C88.1022 8.40951 87.5 8.66341 86.6016 8.74805C87.4154 8.94987 87.9622 9.22005 88.2422 9.55859C88.5221 9.89714 88.6947 10.2096 88.7598 10.4961C88.8314 10.776 88.8672 11.554 88.8672 12.8301V17H85.0488V11.7461C85.0488 10.8997 84.9805 10.3757 84.8438 10.1738C84.7135 9.97201 84.3652 9.87109 83.7988 9.87109V17H79.6875V1.18945ZM83.7988 3.89453V7.41016C84.2611 7.41016 84.5833 7.34831 84.7656 7.22461C84.9544 7.0944 85.0488 6.68099 85.0488 5.98438V5.11523C85.0488 4.61393 84.9577 4.28516 84.7754 4.12891C84.5996 3.97266 84.2741 3.89453 83.7988 3.89453ZM99.1797 5.97461H95.3613V4.80273C95.3613 4.25586 95.3125 3.90755 95.2148 3.75781C95.1172 3.60807 94.9544 3.5332 94.7266 3.5332C94.4792 3.5332 94.2904 3.63411 94.1602 3.83594C94.0365 4.03776 93.9746 4.34375 93.9746 4.75391C93.9746 5.28125 94.0462 5.67839 94.1895 5.94531C94.3262 6.21224 94.7135 6.53451 95.3516 6.91211C97.181 7.99935 98.3333 8.89128 98.8086 9.58789C99.2839 10.2845 99.5215 11.4076 99.5215 12.957C99.5215 14.0833 99.388 14.9134 99.1211 15.4473C98.8607 15.9811 98.3529 16.4303 97.5977 16.7949C96.8424 17.153 95.9635 17.332 94.9609 17.332C93.8607 17.332 92.9199 17.1237 92.1387 16.707C91.3639 16.2904 90.8561 15.7598 90.6152 15.1152C90.3743 14.4707 90.2539 13.556 90.2539 12.3711V11.3359H94.0723V13.2598C94.0723 13.8522 94.1243 14.2331 94.2285 14.4023C94.3392 14.5716 94.5312 14.6562 94.8047 14.6562C95.0781 14.6562 95.2799 14.5488 95.4102 14.334C95.5469 14.1191 95.6152 13.8001 95.6152 13.377C95.6152 12.446 95.4883 11.8372 95.2344 11.5508C94.974 11.2643 94.3327 10.7858 93.3105 10.1152C92.2884 9.43815 91.6113 8.94661 91.2793 8.64062C90.9473 8.33464 90.6706 7.91146 90.4492 7.37109C90.2344 6.83073 90.127 6.14062 90.127 5.30078C90.127 4.08984 90.2799 3.20443 90.5859 2.64453C90.8984 2.08464 91.3997 1.64844 92.0898 1.33594C92.7799 1.01693 93.6133 0.857422 94.5898 0.857422C95.6576 0.857422 96.5658 1.02995 97.3145 1.375C98.0697 1.72005 98.5677 2.15625 98.8086 2.68359C99.056 3.20443 99.1797 4.0931 99.1797 5.34961V5.97461ZM100.82 1.18945H104.961C106.081 1.18945 106.94 1.27734 107.539 1.45312C108.145 1.62891 108.597 1.88281 108.896 2.21484C109.202 2.54688 109.408 2.95052 109.512 3.42578C109.622 3.89453 109.678 4.6237 109.678 5.61328V6.99023C109.678 7.99935 109.574 8.73503 109.365 9.19727C109.157 9.65951 108.773 10.0143 108.213 10.2617C107.66 10.5091 106.934 10.6328 106.035 10.6328H104.932V17H100.82V1.18945ZM104.932 3.89453V7.91797C105.049 7.92448 105.15 7.92773 105.234 7.92773C105.612 7.92773 105.872 7.83659 106.016 7.6543C106.165 7.46549 106.24 7.07812 106.24 6.49219V5.19336C106.24 4.65299 106.156 4.30143 105.986 4.13867C105.817 3.97591 105.465 3.89453 104.932 3.89453ZM120.254 10.4473C120.254 12.0358 120.215 13.1621 120.137 13.8262C120.065 14.4837 119.831 15.0859 119.434 15.6328C119.043 16.1797 118.512 16.5996 117.842 16.8926C117.171 17.1855 116.39 17.332 115.498 17.332C114.652 17.332 113.89 17.1953 113.213 16.9219C112.542 16.6419 112.002 16.2253 111.592 15.6719C111.182 15.1185 110.938 14.5163 110.859 13.8652C110.781 13.2142 110.742 12.0749 110.742 10.4473V7.74219C110.742 6.15365 110.778 5.0306 110.85 4.37305C110.928 3.70898 111.162 3.10352 111.553 2.55664C111.95 2.00977 112.484 1.58984 113.154 1.29688C113.825 1.00391 114.606 0.857422 115.498 0.857422C116.344 0.857422 117.103 0.997396 117.773 1.27734C118.451 1.55078 118.994 1.96419 119.404 2.51758C119.814 3.07096 120.059 3.67318 120.137 4.32422C120.215 4.97526 120.254 6.11458 120.254 7.74219V10.4473ZM116.143 5.25195C116.143 4.51628 116.1 4.04753 116.016 3.8457C115.938 3.63737 115.771 3.5332 115.518 3.5332C115.303 3.5332 115.137 3.61784 115.02 3.78711C114.909 3.94987 114.854 4.43815 114.854 5.25195V12.6348C114.854 13.5527 114.889 14.1191 114.961 14.334C115.039 14.5488 115.215 14.6562 115.488 14.6562C115.768 14.6562 115.947 14.5326 116.025 14.2852C116.104 14.0378 116.143 13.4486 116.143 12.5176V5.25195ZM121.797 1.18945H124.707C126.647 1.18945 127.959 1.26432 128.643 1.41406C129.333 1.5638 129.893 1.94792 130.322 2.56641C130.758 3.17839 130.977 4.1582 130.977 5.50586C130.977 6.73633 130.824 7.56315 130.518 7.98633C130.212 8.40951 129.609 8.66341 128.711 8.74805C129.525 8.94987 130.072 9.22005 130.352 9.55859C130.632 9.89714 130.804 10.2096 130.869 10.4961C130.941 10.776 130.977 11.554 130.977 12.8301V17H127.158V11.7461C127.158 10.8997 127.09 10.3757 126.953 10.1738C126.823 9.97201 126.475 9.87109 125.908 9.87109V17H121.797V1.18945ZM125.908 3.89453V7.41016C126.37 7.41016 126.693 7.34831 126.875 7.22461C127.064 7.0944 127.158 6.68099 127.158 5.98438V5.11523C127.158 4.61393 127.067 4.28516 126.885 4.12891C126.709 3.97266 126.383 3.89453 125.908 3.89453ZM140.859 1.18945V4.35352H138.418V17H134.307V4.35352H131.875V1.18945H140.859Z" fill="#EDC239"/>
</svg>
