<svg width="10" height="12" viewBox="0 0 10 12" fill="none" xmlns="http://www.w3.org/2000/svg">
<path d="M9.86213 7.34475C10.0524 7.145 10.0449 6.82825 9.84488 6.638C9.64488 6.4475 9.32838 6.4555 9.13788 6.65525L5.50013 10.4908V0.5C5.50013 0.224 5.27613 0 5.00013 0C4.72413 0 4.50013 0.224 4.50013 0.5V10.4747L0.862136 6.65525C0.671636 6.45525 0.355135 6.4475 0.155135 6.638C0.0521355 6.73625 0.000135422 6.868 0.000135422 7C0.000135422 7.124 0.0458851 7.248 0.138135 7.34475L4.29313 11.707C4.48188 11.896 4.73288 12 5.00013 12C5.26738 12 5.51838 11.896 5.71563 11.6982L9.86213 7.34475Z" fill="white"/>
</svg>
