<svg width="30" height="30" viewBox="0 0 30 30" fill="none" xmlns="http://www.w3.org/2000/svg">
<g clip-path="url(#clip0_1_497)">
<path d="M15.0051 7.29736C10.7514 7.29736 7.30762 10.7449 7.30762 14.9949C7.30762 19.2486 10.7551 22.6924 15.0051 22.6924C19.2589 22.6924 22.7026 19.2449 22.7026 14.9949C22.7026 10.7411 19.2551 7.29736 15.0051 7.29736V7.29736ZM15.0051 19.9911C12.2439 19.9911 10.0089 17.7549 10.0089 14.9949C10.0089 12.2349 12.2451 9.99861 15.0051 9.99861C17.7651 9.99861 20.0014 12.2349 20.0014 14.9949C20.0026 17.7549 17.7664 19.9911 15.0051 19.9911V19.9911Z" fill="currentColor"/>
<path d="M21.1853 0.0952099C18.4253 -0.0335401 11.589 -0.0272901 8.82653 0.0952099C6.39903 0.20896 4.25778 0.79521 2.53153 2.52146C-0.353466 5.40646 0.0152841 9.29396 0.0152841 14.9952C0.0152841 20.8302 -0.309716 24.6277 2.53153 27.469C5.42778 30.364 9.37153 29.9852 15.0053 29.9852C20.7853 29.9852 22.7803 29.989 24.824 29.1977C27.6028 28.119 29.7003 25.6352 29.9053 21.174C30.0353 18.4127 30.0278 11.5777 29.9053 8.81521C29.6578 3.54896 26.8315 0.35521 21.1853 0.0952099V0.0952099ZM25.554 25.5602C23.6628 27.4515 21.039 27.2827 14.969 27.2827C8.71903 27.2827 6.21278 27.3752 4.38403 25.5415C2.27778 23.4452 2.65903 20.079 2.65903 14.9752C2.65903 8.06896 1.95028 3.09521 8.88153 2.74021C10.474 2.68396 10.9428 2.66521 14.9515 2.66521L15.0078 2.70271C21.669 2.70271 26.8953 2.00521 27.209 8.93521C27.2803 10.5165 27.2965 10.9915 27.2965 14.994C27.2953 21.1715 27.4128 23.6927 25.554 25.5602V25.5602Z" fill="currentColor"/>
<path d="M23.0068 8.79232C24.0002 8.79232 24.8055 7.98699 24.8055 6.99357C24.8055 6.00015 24.0002 5.19482 23.0068 5.19482C22.0133 5.19482 21.208 6.00015 21.208 6.99357C21.208 7.98699 22.0133 8.79232 23.0068 8.79232Z" fill="currentColor"/>
</g>
<defs>
<clipPath id="clip0_1_497">
<rect width="30" height="30" fill="currentColor"/>
</clipPath>
</defs>
</svg>
