<svg width="30" height="26" viewBox="0 0 30 26" fill="none" xmlns="http://www.w3.org/2000/svg">
<path d="M26.9175 6.89223C28.1375 6.02598 29.1637 4.94473 30 3.69973V3.69848C28.8838 4.18723 27.6963 4.51223 26.4563 4.66973C27.7313 3.90848 28.705 2.71223 29.1625 1.27098C27.9737 1.97973 26.6612 2.47973 25.2625 2.75973C24.1337 1.55723 22.525 0.813477 20.77 0.813477C17.365 0.813477 14.6238 3.57723 14.6238 6.96473C14.6238 7.45223 14.665 7.92098 14.7662 8.36723C9.65375 8.11723 5.12875 5.66723 2.08875 1.93348C1.55875 2.85473 1.24625 3.90848 1.24625 5.04223C1.24625 7.17223 2.3425 9.05973 3.97875 10.1535C2.99 10.1347 2.02125 9.84723 1.2 9.39598V9.46348C1.2 12.4522 3.33125 14.9347 6.1275 15.5072C5.62625 15.6447 5.08125 15.7097 4.515 15.7097C4.12125 15.7097 3.72375 15.6872 3.35125 15.6047C4.1475 18.0397 6.41 19.831 9.0975 19.8897C7.005 21.526 4.3475 22.5122 1.47125 22.5122C0.9675 22.5122 0.48375 22.4897 0 22.4285C2.725 24.1847 5.9525 25.1885 9.435 25.1885C20.2887 25.1885 27.3625 16.1335 26.9175 6.89223Z" fill="currentColor"/>
</svg>
