<svg width="30" height="30" viewBox="0 0 30 30" fill="none" xmlns="http://www.w3.org/2000/svg">
<rect width="30" height="30" fill="#473453"/>
<g clip-path="url(#clip0_1_479)">
<path d="M21.4718 16.6831C21.9193 12.9162 21.2568 10.5381 20.0618 9.46245L20.0624 9.46183C18.1337 7.62495 11.6199 7.35308 9.31243 9.54433C8.27618 10.6162 7.91118 12.1893 7.87118 14.1368C7.83118 16.085 7.78368 19.7343 11.1843 20.7243H11.1874L11.1843 22.2362C11.1843 22.2362 11.1612 22.8487 11.5524 22.9718C11.9999 23.1168 12.2024 22.8325 13.5943 21.17C15.9218 21.3718 17.7093 20.9093 17.9124 20.8418C18.3824 20.6843 21.0418 20.3325 21.4718 16.6831ZM13.8237 20.1062C13.8237 20.1062 12.3506 21.9431 11.8924 22.42C11.7424 22.575 11.5781 22.5606 11.5806 22.2531C11.5806 22.0512 11.5918 19.7431 11.5918 19.7431C8.70868 18.9168 8.87868 15.8093 8.90993 14.1837C8.94118 12.5575 9.23868 11.2256 10.1162 10.3287C12.1406 8.43058 17.8512 8.85495 19.3062 10.2225C21.0849 11.7993 20.4518 16.2543 20.4556 16.4062C20.0899 19.4525 17.9349 19.6456 17.5387 19.7775C17.3693 19.8337 15.7974 20.2381 13.8237 20.1062Z" fill="white"/>
<path d="M14.6385 10.6855C14.3979 10.6855 14.3979 11.0605 14.6385 11.0637C16.5054 11.078 18.0429 12.3793 18.0597 14.7662C18.0597 15.018 18.4285 15.0149 18.4254 14.763H18.4247C18.4047 12.1912 16.726 10.6999 14.6385 10.6855Z" fill="white"/>
<path d="M17.0941 14.3708C17.0885 14.6195 17.4566 14.6314 17.4597 14.3795C17.4904 12.9614 16.616 11.7933 14.9728 11.6701C14.7322 11.6526 14.7072 12.0308 14.9472 12.0483C16.3722 12.1564 17.1228 13.1289 17.0941 14.3708Z" fill="white"/>
<path d="M16.7009 15.9837C16.3921 15.8049 16.0777 15.9162 15.9477 16.0918L15.6759 16.4437C15.5377 16.6224 15.2796 16.5987 15.2796 16.5987C13.3959 16.1006 12.8921 14.1293 12.8921 14.1293C12.8921 14.1293 12.869 13.8624 13.0415 13.7193L13.3815 13.4381C13.5515 13.3031 13.659 12.9781 13.4859 12.6587C13.0234 11.8231 12.7128 11.5349 12.5546 11.3137C12.3884 11.1056 12.1384 11.0587 11.8784 11.1993H11.8728C11.3321 11.5156 10.7403 12.1074 10.9296 12.7168C11.2528 13.3593 11.8465 15.4074 13.739 16.9549C14.6284 17.6868 16.0359 18.4368 16.6334 18.6099L16.639 18.6187C17.2277 18.8149 17.8002 18.1999 18.1059 17.6431V17.6387C18.2415 17.3693 18.1965 17.1143 17.9984 16.9474C17.6471 16.6049 17.1171 16.2268 16.7009 15.9837Z" fill="white"/>
<path d="M15.2304 13.065C15.831 13.1 16.1222 13.4138 16.1535 14.0582C16.1647 14.3101 16.5304 14.2926 16.5191 14.0407C16.4791 13.1994 16.0404 12.7307 15.2504 12.6869C15.0097 12.6725 14.9872 13.0507 15.2304 13.065Z" fill="white"/>
</g>
<defs>
<clipPath id="clip0_1_479">
<rect width="15" height="15" fill="white" transform="translate(7 8)"/>
</clipPath>
</defs>
</svg>
