<svg width="30" height="30" viewBox="0 0 30 30" fill="none" xmlns="http://www.w3.org/2000/svg">
<rect width="30" height="30" fill="#473453"/>
<g clip-path="url(#clip0_1_467)">
<path d="M19.4469 15.6836C19.2044 15.357 19.2738 15.2117 19.4469 14.9198C19.45 14.9165 21.4519 11.9664 21.6581 10.966L21.6594 10.9653C21.7619 10.6007 21.6594 10.3328 21.1638 10.3328H19.5238C19.1062 10.3328 18.9137 10.5627 18.8106 10.82C18.8106 10.82 17.9756 12.9515 16.7944 14.3332C16.4131 14.7325 16.2369 14.8605 16.0288 14.8605C15.9263 14.8605 15.7669 14.7325 15.7669 14.3679V10.9653C15.7669 10.5281 15.65 10.3328 15.3044 10.3328H12.7256C12.4638 10.3328 12.3081 10.5367 12.3081 10.7267C12.3081 11.1413 12.8988 11.2366 12.96 12.403V14.9338C12.96 15.4883 12.8656 15.5903 12.6562 15.5903C12.0988 15.5903 10.7456 13.4501 9.94375 11.0006C9.78188 10.5254 9.62375 10.3334 9.20312 10.3334H7.5625C7.09437 10.3334 7 10.5634 7 10.8207C7 11.2752 7.5575 13.5354 9.5925 16.5214C10.9488 18.5597 12.8588 19.6641 14.5963 19.6641C15.6406 19.6641 15.7681 19.4188 15.7681 18.9969C15.7681 17.0493 15.6737 16.8654 16.1969 16.8654C16.4394 16.8654 16.8569 16.9933 17.8319 17.9765C18.9462 19.1422 19.1294 19.6641 19.7531 19.6641H21.3931C21.8606 19.6641 22.0975 19.4188 21.9613 18.9349C21.6494 17.9171 19.5419 15.8236 19.4469 15.6836Z" fill="white"/>
</g>
<defs>
<clipPath id="clip0_1_467">
<rect width="15" height="15.9966" fill="white" transform="translate(7 7)"/>
</clipPath>
</defs>
</svg>
