<svg width="30" height="22" viewBox="0 0 30 22" fill="none" xmlns="http://www.w3.org/2000/svg">
<path d="M29.3366 3.4142L29.3741 3.6592C29.0116 2.37295 28.0329 1.38045 26.7891 1.0192L26.7629 1.01295C24.4241 0.377947 15.0129 0.377947 15.0129 0.377947C15.0129 0.377947 5.62537 0.365447 3.26287 1.01295C1.99537 1.38045 1.01537 2.37295 0.659118 3.63295L0.652868 3.6592C-0.220882 8.22295 -0.227132 13.7067 0.691618 18.5929L0.652868 18.3454C1.01537 19.6317 1.99412 20.6242 3.23787 20.9854L3.26412 20.9917C5.60037 21.6279 15.0141 21.6279 15.0141 21.6279C15.0141 21.6279 24.4004 21.6279 26.7641 20.9917C28.0329 20.6242 29.0129 19.6317 29.3691 18.3717L29.3754 18.3454C29.7729 16.2229 30.0004 13.7804 30.0004 11.2854C30.0004 11.1942 30.0004 11.1017 29.9991 11.0092C30.0004 10.9242 30.0004 10.8229 30.0004 10.7217C30.0004 8.22545 29.7729 5.78295 29.3366 3.4142ZM12.0104 15.5667V6.45045L19.8429 11.0154L12.0104 15.5667Z" fill="currentColor"/>
</svg>
